<svg xmlns="http://www.w3.org/2000/svg" width="22" height="22" viewBox="0 0 22 22">
  <path id="FLOW_ICON" data-name="FLOW ICON" d="M6.8.825A11.2,11.2,0,0,1,11.027,0a10.163,10.163,0,0,1,6.065,1.925,10.92,10.92,0,0,1,4.043,4.858,10.4,10.4,0,0,1,.643,6.233,10.376,10.376,0,0,1-2.941,5.592l-1.011-.917A10.006,10.006,0,0,0,20.4,12.833a9.413,9.413,0,0,0-.551-5.5,8.907,8.907,0,0,0-3.584-4.217,9.881,9.881,0,0,0-5.33-1.65h0A8.507,8.507,0,0,0,7.26,2.2,8.947,8.947,0,0,0,4.227,4.125h0A11.246,11.246,0,0,0,2.114,7.15a9.947,9.947,0,0,0-.735,3.575,9.741,9.741,0,0,0,2.757,6.692l-1.011.917A10.371,10.371,0,0,1,0,10.817H0A10.338,10.338,0,0,1,.827,6.692,11.228,11.228,0,0,1,3.216,3.208,10.66,10.66,0,0,1,6.8.825ZM8.546,4.858A7.443,7.443,0,0,1,11.027,4.4a6.94,6.94,0,0,1,4.687,1.925,6.154,6.154,0,0,1,1.93,4.583h0a6.47,6.47,0,0,1-1.93,4.492L14.7,14.392a5,5,0,0,0,1.47-3.483,5.132,5.132,0,0,0-1.562-3.667,5.158,5.158,0,0,0-3.676-1.558h0a5.25,5.25,0,0,0-2.022.367A17.662,17.662,0,0,0,7.351,7.242,5.342,5.342,0,0,0,5.789,11a5,5,0,0,0,1.47,3.483L6.249,15.492A6.705,6.705,0,0,1,4.319,11h0A7.061,7.061,0,0,1,6.341,6.325h0A7.132,7.132,0,0,1,8.546,4.858ZM11.762,22H10.384V13.017a2.174,2.174,0,0,1-1.562-2.108,2.205,2.205,0,0,1,4.411,0,2.174,2.174,0,0,1-1.562,2.108V22Z" fill="#f8f8f8" fill-rule="evenodd"/>
</svg>
