<svg xmlns="http://www.w3.org/2000/svg" width="23.857" height="23.857" viewBox="0 0 23.857 23.857">
  <g id="Home_Icon_selected_" data-name="Home Icon (selected)" fill="none">
    <path d="M13.917,23.857V16.279H9.94v7.578H2.684V14.138H0L11.929,0,23.857,14.138H21.173v9.719Z" stroke="none"/>
    <path d="M 19.67324829101562 22.35717964172363 L 19.67324829101562 12.6384391784668 L 20.62907600402832 12.6384391784668 L 11.9285888671875 2.326129913330078 L 3.228102445602417 12.6384391784668 L 4.183928966522217 12.6384391784668 L 4.183928966522217 22.35717964172363 L 8.440488815307617 22.35717964172363 L 8.440488815307617 14.77946853637695 L 15.41668891906738 14.77946853637695 L 15.41668891906738 22.35717964172363 L 19.67324829101562 22.35717964172363 M 21.17324829101562 23.85717964172363 L 13.91668891906738 23.85717964172363 L 13.91668891906738 16.27946853637695 L 9.940488815307617 16.27946853637695 L 9.940488815307617 23.85717964172363 L 2.683928966522217 23.85717964172363 L 2.683928966522217 14.1384391784668 L -1.132812485593604e-06 14.1384391784668 L 11.9285888671875 -1.132812485593604e-06 L 23.85717964172363 14.1384391784668 L 21.17324829101562 14.1384391784668 L 21.17324829101562 23.85717964172363 Z" stroke="none" fill="#fff"/>
  </g>
</svg>
